<svg width="50" height="50" viewBox="0 0 50 50" fill="none" xmlns="http://www.w3.org/2000/svg">
<g clip-path="url(#clip0_798_198)">
<path d="M15.0729 33.6906C16.1806 34.7983 17.5139 35.3888 19.0615 35.4584L19.3743 35.466C21.0556 35.466 22.494 34.8722 23.6756 33.6906C24.6145 32.7518 25.1837 31.6464 25.3771 30.3802L25.4109 30.1254C25.556 28.8226 25.3217 27.6016 24.7107 26.4683L27.7442 23.4348L30.2184 23.0102L30.3966 22.9798L30.4228 22.8002L30.9373 19.3027L33.997 18.9125L34.2159 18.8856V14.5477H33.9659L31.9033 14.5483H31.7997L22.2952 24.0529C21.2358 23.4825 20.1004 23.2406 18.8937 23.3292L18.6382 23.3527C17.2655 23.5049 16.0749 24.086 15.0729 25.088C13.9653 26.1956 13.3747 27.5289 13.3052 29.0765L13.2976 29.3893C13.2976 31.0706 13.8914 32.5091 15.0729 33.6906ZM17.4884 31.2752C17.0339 30.8217 16.7798 30.287 16.7233 29.6621L16.7109 29.3886C16.7109 28.7375 16.9083 28.1787 17.3054 27.703L17.4877 27.5041C17.9429 27.0512 18.4785 26.7969 19.1029 26.7383L19.3756 26.7252C20.1165 26.7221 20.7397 26.9793 21.2594 27.5028L21.4417 27.7044C21.7831 28.1167 21.9776 28.5855 22.0259 29.1172L22.0377 29.3886C22.0376 30.1249 21.7805 30.7494 21.2601 31.2752C20.7404 31.7949 20.1167 32.0518 19.375 32.0513C18.7253 32.0508 18.1659 31.8537 17.688 31.4568L17.4884 31.2752ZM27.5523 27.0449L27.5875 27.1824C27.9323 28.5302 27.9579 29.8883 27.6634 31.2593L27.6006 31.5334C27.2429 32.9901 26.5063 34.2781 25.3847 35.3997C23.8168 36.9676 21.9618 37.7971 19.8086 37.8946L19.3743 37.905C17.0352 37.905 15.0362 37.072 13.3639 35.3997C11.796 33.8319 10.9665 31.9768 10.869 29.8236L10.8586 29.3893C10.8586 27.0502 11.6915 25.0512 13.3639 23.3789C14.4147 22.328 15.6122 21.6144 16.9588 21.2341L17.2302 21.163C18.6948 20.8028 20.1438 20.8071 21.5805 21.1754L21.7186 21.2113L30.8212 12.1087H36.6549V20.924L33.2602 21.4074L33.0745 21.4344L33.0475 21.6201L32.5579 25.05L28.9996 25.6625L28.9209 25.6763L27.5523 27.0449Z" fill="#777879" stroke="white" stroke-width="0.5"/>
</g>
<defs>
<clipPath id="clip0_798_198">
<rect width="35" height="35" fill="white" transform="translate(24.7488 49.4976) rotate(-135)"/>
</clipPath>
</defs>
</svg>
