<svg width="30" height="30" viewBox="0 0 30 30" fill="none" xmlns="http://www.w3.org/2000/svg">
<path d="M11.5938 23.75H18.4062L17.7812 21.25H12.2188L11.5938 23.75ZM11.25 18.75H18.75C20.4792 18.75 21.9533 18.1404 23.1725 16.9212C24.3917 15.7021 25.0008 14.2283 25 12.5C24.9992 10.7717 24.3896 9.29792 23.1713 8.07875C21.9529 6.85958 20.4792 6.25 18.75 6.25H11.25C9.52083 6.25 8.04708 6.85958 6.82875 8.07875C5.61042 9.29792 5.00083 10.7717 5 12.5C4.99917 14.2283 5.60875 15.7025 6.82875 16.9225C8.04875 18.1425 9.5225 18.7517 11.25 18.75ZM15 15C14.3125 15 13.7242 14.7554 13.235 14.2663C12.7458 13.7771 12.5008 13.1883 12.5 12.5C12.4992 11.8117 12.7442 11.2233 13.235 10.735C13.7258 10.2467 14.3142 10.0017 15 10C15.6858 9.99833 16.2746 10.2433 16.7663 10.735C17.2579 11.2267 17.5025 11.815 17.5 12.5C17.4975 13.185 17.2529 13.7738 16.7663 14.2663C16.2796 14.7587 15.6908 15.0033 15 15ZM8.125 11.25C8.47917 11.25 8.77625 11.13 9.01625 10.89C9.25625 10.65 9.37583 10.3533 9.375 10C9.37417 9.64667 9.25417 9.35 9.015 9.11C8.77583 8.87 8.47917 8.75 8.125 8.75C7.77083 8.75 7.47417 8.87 7.235 9.11C6.99583 9.35 6.87583 9.64667 6.875 10C6.87417 10.3533 6.99417 10.6504 7.235 10.8913C7.47583 11.1321 7.7725 11.2517 8.125 11.25ZM5 26.25V23.75H9.03125L9.6875 21.125C7.625 20.7708 5.91167 19.7862 4.5475 18.1712C3.18333 16.5562 2.50083 14.6658 2.5 12.5C2.5 10.0625 3.34917 7.995 5.0475 6.2975C6.74583 4.6 8.81333 3.75083 11.25 3.75H18.75C21.1875 3.75 23.2554 4.59917 24.9537 6.2975C26.6521 7.99583 27.5008 10.0633 27.5 12.5C27.5 14.6667 26.8175 16.5575 25.4525 18.1725C24.0875 19.7875 22.3742 20.7717 20.3125 21.125L20.9688 23.75H25V26.25H5ZM15 17.5C16.375 17.5 17.5521 17.0104 18.5312 16.0312C19.5104 15.0521 20 13.875 20 12.5C20 11.125 19.5104 9.94792 18.5312 8.96875C17.5521 7.98958 16.375 7.5 15 7.5C13.625 7.5 12.4479 7.98958 11.4688 8.96875C10.4896 9.94792 10 11.125 10 12.5C10 13.875 10.4896 15.0521 11.4688 16.0312C12.4479 17.0104 13.625 17.5 15 17.5Z" fill="#777879"/>
</svg>
